# xmcd CD database file
#
# Track frame offsets:
#	175
#	22947
#	33092
#	51542
#	68232
#	92782
#
# Disc length: 1537 seconds
#
# Revision: 0
# Processed by: cddbd v1.5.1PL0 Copyright (c) Steve Scherf et al.
# Submitted via: CDex 1.51
#
DISCID=4705ff06
DTITLE=Tátrai Band - New York, New York
DYEAR=1900
DGENRE=Blues
TTITLE0=New York
TTITLE1=To Steve
TTITLE2=Szeptember (September)
TTITLE3=Áttörés (Break Through)
TTITLE4=New York (English Version)
TTITLE5=Bonus Track
EXTD=
EXTT0=
EXTT1=
EXTT2=
EXTT3=
EXTT4=
EXTT5=
PLAYORDER=
